<svg width="15" height="19" viewBox="0 0 15 19" fill="none" xmlns="http://www.w3.org/2000/svg">
<path d="M14.04 16.738V19H0.962V17.232L8.372 10.082C9.27333 9.21533 9.88 8.47 10.192 7.846C10.504 7.20467 10.66 6.56333 10.66 5.922C10.66 4.96867 10.322 4.232 9.646 3.712C8.98733 3.17467 8.034 2.906 6.786 2.906C4.77533 2.906 3.224 3.56467 2.132 4.882L0.364 3.348C1.07467 2.48133 2.002 1.80533 3.146 1.32C4.30733 0.834667 5.59867 0.592 7.02 0.592C8.92667 0.592 10.4433 1.05133 11.57 1.97C12.6967 2.87133 13.26 4.102 13.26 5.662C13.26 6.63267 13.052 7.55133 12.636 8.418C12.22 9.28467 11.4313 10.2727 10.27 11.382L4.706 16.738H14.04Z" fill="black"/>
</svg>
