<svg width="14" height="20" viewBox="0 0 14 20" fill="none" xmlns="http://www.w3.org/2000/svg">
<path d="M8.216 8.444C10.0013 8.61733 11.362 9.172 12.298 10.108C13.234 11.0267 13.702 12.2053 13.702 13.644C13.702 14.684 13.442 15.6287 12.922 16.478C12.402 17.31 11.622 17.9773 10.582 18.48C9.55933 18.9653 8.30267 19.208 6.812 19.208C5.512 19.208 4.264 19.0173 3.068 18.636C1.872 18.2373 0.892667 17.6913 0.13 16.998L1.326 14.944C1.95 15.5333 2.74733 16.01 3.718 16.374C4.68867 16.7207 5.72 16.894 6.812 16.894C8.164 16.894 9.21267 16.608 9.958 16.036C10.7207 15.464 11.102 14.6753 11.102 13.67C11.102 12.6647 10.7293 11.8847 9.984 11.33C9.23867 10.7753 8.112 10.498 6.604 10.498H5.148V8.678L9.724 3.062H0.962V0.799999H12.974V2.568L8.216 8.444Z" fill="black"/>
</svg>
